<?xml version="1.0" encoding="utf-8"?>
<!-- Generator: Adobe Illustrator 26.0.0, SVG Export Plug-In . SVG Version: 6.00 Build 0)  -->
<svg version="1.1" id="Camada_1" xmlns="http://www.w3.org/2000/svg" xmlns:xlink="http://www.w3.org/1999/xlink" x="0px" y="0px"
	 viewBox="0 0 800 800" style="enable-background:new 0 0 800 800;" xml:space="preserve">
<style type="text/css">
	.st0{opacity:0.5;fill:none;stroke:#ACB1C1;stroke-width:50;stroke-miterlimit:133.3333;enable-background:new    ;}
	.st1{fill:none;stroke:#FFFFFF;stroke-width:50;stroke-linecap:round;stroke-miterlimit:133.3333;}
</style>
<path class="st0" d="M66.7,400c0-157.1,0-235.7,48.8-284.5C164.3,66.7,242.9,66.7,400,66.7c157.1,0,235.7,0,284.5,48.8
	c48.8,48.8,48.8,127.4,48.8,284.5c0,157.1,0,235.7-48.8,284.5c-48.8,48.8-127.4,48.8-284.5,48.8c-157.1,0-235.7,0-284.5-48.8
	C66.7,635.7,66.7,557.1,66.7,400z"/>
<path class="st1" d="M483.3,316.7L316.7,483.3 M316.7,316.7l166.7,166.7"/>
</svg>
