<?xml version="1.0" encoding="utf-8"?>
<!-- Generator: Adobe Illustrator 26.0.0, SVG Export Plug-In . SVG Version: 6.00 Build 0)  -->
<svg version="1.1" id="Camada_1" xmlns="http://www.w3.org/2000/svg" xmlns:xlink="http://www.w3.org/1999/xlink" x="0px" y="0px"
	 viewBox="0 0 200 200" style="enable-background:new 0 0 200 200;" xml:space="preserve">
<style type="text/css">
	.st0{fill:#4E5456;}
	.st1{fill:#0E1819;}
	.st2{fill:#A7B4B7;}
	.st3{fill:#B8AD1F;}
</style>
<rect class="st0" width="200" height="200"/>
<circle class="st1" cx="100" cy="100" r="102.25"/>
<path class="st2" d="M28.69,150.97V50.4h40.42c9.79,0,17.46,2.6,23,7.81c5.54,5.2,8.31,12.4,8.31,21.59
	c0,6.85-1.21,12.28-3.64,16.32c-2.43,4.03-6.31,7.13-11.65,9.28c4.37,1.6,7.44,3.92,9.22,6.96c1.78,3.05,3.48,8.98,5.1,17.79
	c2.35,11.35,4.25,18.1,5.7,20.25v0.56H80.64c-2.02-4.12-3.88-10.74-5.58-19.83c-1.21-6.56-2.55-10.85-4-12.87
	c-1.46-2.02-3.93-3.02-7.4-3.02H52.6v35.72H28.69z M52.6,95.41h13.47c7.6,0,11.41-4.03,11.41-12.1c0-4.31-1.09-7.45-3.28-9.42
	c-1.78-1.59-4.85-2.39-9.22-2.39H52.6V95.41z"/>
<path class="st3" d="M109.97,151.7L142.53,48.3h20.27L130.36,151.7H109.97z"/>
<path class="st2" d="M158.15,143.51v-26.86l25.49-10.83l-25.49-11.96V67.7l49.15,27.57v20.68L158.15,143.51z"/>
</svg>
